<?xml version="1.0"?><svg xmlns="http://www.w3.org/2000/svg" width="201" height="348"><rect x="0" y="0" width="100%" height="100%" fill="rgb(162, 155, 254)" /><polyline points="33.5, 0, 67, 58.023702053557, 0, 58.023702053557, 33.5, 0" fill="#ddd" fill-opacity="0.124" stroke="#000" stroke-opacity="0.02" transform="translate(-33.5, 0) rotate(180, 33.5, 29.011851026779)" /><polyline points="33.5, 0, 67, 58.023702053557, 0, 58.023702053557, 33.5, 0" fill="#ddd" fill-opacity="0.124" stroke="#000" stroke-opacity="0.02" transform="translate(167.5, 0) rotate(180, 33.5, 29.011851026779)" /><polyline points="33.5, 0, 67, 58.023702053557, 0, 58.023702053557, 33.5, 0" fill="#222" fill-opacity="0.11533333333333" stroke="#000" stroke-opacity="0.02" transform="translate(0, 0) rotate(0, 33.5, 29.011851026779)" /><polyline points="33.5, 0, 67, 58.023702053557, 0, 58.023702053557, 33.5, 0" fill="#ddd" fill-opacity="0.054666666666667" stroke="#000" stroke-opacity="0.02" transform="translate(33.5, 0) rotate(180, 33.5, 29.011851026779)" /><polyline points="33.5, 0, 67, 58.023702053557, 0, 58.023702053557, 33.5, 0" fill="#ddd" fill-opacity="0.14133333333333" stroke="#000" stroke-opacity="0.02" transform="translate(67, 0) rotate(0, 33.5, 29.011851026779)" /><polyline points="33.5, 0, 67, 58.023702053557, 0, 58.023702053557, 33.5, 0" fill="#222" fill-opacity="0.063333333333333" stroke="#000" stroke-opacity="0.02" transform="translate(100.5, 0) rotate(180, 33.5, 29.011851026779)" /><polyline points="33.5, 0, 67, 58.023702053557, 0, 58.023702053557, 33.5, 0" fill="#ddd" fill-opacity="0.037333333333333" stroke="#000" stroke-opacity="0.02" transform="translate(134, 0) rotate(0, 33.5, 29.011851026779)" /><polyline points="33.5, 0, 67, 58.023702053557, 0, 58.023702053557, 33.5, 0" fill="#ddd" fill-opacity="0.02" stroke="#000" stroke-opacity="0.02" transform="translate(-33.5, 58.023702053557) rotate(0, 33.5, 29.011851026779)" /><polyline points="33.5, 0, 67, 58.023702053557, 0, 58.023702053557, 33.5, 0" fill="#ddd" fill-opacity="0.02" stroke="#000" stroke-opacity="0.02" transform="translate(167.5, 58.023702053557) rotate(0, 33.5, 29.011851026779)" /><polyline points="33.5, 0, 67, 58.023702053557, 0, 58.023702053557, 33.5, 0" fill="#ddd" fill-opacity="0.089333333333333" stroke="#000" stroke-opacity="0.02" transform="translate(0, 58.023702053557) rotate(180, 33.5, 29.011851026779)" /><polyline points="33.5, 0, 67, 58.023702053557, 0, 58.023702053557, 33.5, 0" fill="#222" fill-opacity="0.11533333333333" stroke="#000" stroke-opacity="0.02" transform="translate(33.5, 58.023702053557) rotate(0, 33.5, 29.011851026779)" /><polyline points="33.5, 0, 67, 58.023702053557, 0, 58.023702053557, 33.5, 0" fill="#ddd" fill-opacity="0.054666666666667" stroke="#000" stroke-opacity="0.02" transform="translate(67, 58.023702053557) rotate(180, 33.5, 29.011851026779)" /><polyline points="33.5, 0, 67, 58.023702053557, 0, 58.023702053557, 33.5, 0" fill="#ddd" fill-opacity="0.124" stroke="#000" stroke-opacity="0.02" transform="translate(100.5, 58.023702053557) rotate(0, 33.5, 29.011851026779)" /><polyline points="33.5, 0, 67, 58.023702053557, 0, 58.023702053557, 33.5, 0" fill="#222" fill-opacity="0.13266666666667" stroke="#000" stroke-opacity="0.02" transform="translate(134, 58.023702053557) rotate(180, 33.5, 29.011851026779)" /><polyline points="33.5, 0, 67, 58.023702053557, 0, 58.023702053557, 33.5, 0" fill="#ddd" fill-opacity="0.089333333333333" stroke="#000" stroke-opacity="0.02" transform="translate(-33.5, 116.04740410711) rotate(180, 33.5, 29.011851026779)" /><polyline points="33.5, 0, 67, 58.023702053557, 0, 58.023702053557, 33.5, 0" fill="#ddd" fill-opacity="0.089333333333333" stroke="#000" stroke-opacity="0.02" transform="translate(167.5, 116.04740410711) rotate(180, 33.5, 29.011851026779)" /><polyline points="33.5, 0, 67, 58.023702053557, 0, 58.023702053557, 33.5, 0" fill="#222" fill-opacity="0.080666666666667" stroke="#000" stroke-opacity="0.02" transform="translate(0, 116.04740410711) rotate(0, 33.5, 29.011851026779)" /><polyline points="33.5, 0, 67, 58.023702053557, 0, 58.023702053557, 33.5, 0" fill="#ddd" fill-opacity="0.037333333333333" stroke="#000" stroke-opacity="0.02" transform="translate(33.5, 116.04740410711) rotate(180, 33.5, 29.011851026779)" /><polyline points="33.5, 0, 67, 58.023702053557, 0, 58.023702053557, 33.5, 0" fill="#ddd" fill-opacity="0.072" stroke="#000" stroke-opacity="0.02" transform="translate(67, 116.04740410711) rotate(0, 33.5, 29.011851026779)" /><polyline points="33.5, 0, 67, 58.023702053557, 0, 58.023702053557, 33.5, 0" fill="#ddd" fill-opacity="0.089333333333333" stroke="#000" stroke-opacity="0.02" transform="translate(100.5, 116.04740410711) rotate(180, 33.5, 29.011851026779)" /><polyline points="33.5, 0, 67, 58.023702053557, 0, 58.023702053557, 33.5, 0" fill="#222" fill-opacity="0.11533333333333" stroke="#000" stroke-opacity="0.02" transform="translate(134, 116.04740410711) rotate(0, 33.5, 29.011851026779)" /><polyline points="33.5, 0, 67, 58.023702053557, 0, 58.023702053557, 33.5, 0" fill="#ddd" fill-opacity="0.037333333333333" stroke="#000" stroke-opacity="0.02" transform="translate(-33.5, 174.07110616067) rotate(0, 33.5, 29.011851026779)" /><polyline points="33.5, 0, 67, 58.023702053557, 0, 58.023702053557, 33.5, 0" fill="#ddd" fill-opacity="0.037333333333333" stroke="#000" stroke-opacity="0.02" transform="translate(167.5, 174.07110616067) rotate(0, 33.5, 29.011851026779)" /><polyline points="33.5, 0, 67, 58.023702053557, 0, 58.023702053557, 33.5, 0" fill="#ddd" fill-opacity="0.02" stroke="#000" stroke-opacity="0.02" transform="translate(0, 174.07110616067) rotate(180, 33.5, 29.011851026779)" /><polyline points="33.5, 0, 67, 58.023702053557, 0, 58.023702053557, 33.5, 0" fill="#ddd" fill-opacity="0.089333333333333" stroke="#000" stroke-opacity="0.02" transform="translate(33.5, 174.07110616067) rotate(0, 33.5, 29.011851026779)" /><polyline points="33.5, 0, 67, 58.023702053557, 0, 58.023702053557, 33.5, 0" fill="#ddd" fill-opacity="0.14133333333333" stroke="#000" stroke-opacity="0.02" transform="translate(67, 174.07110616067) rotate(180, 33.5, 29.011851026779)" /><polyline points="33.5, 0, 67, 58.023702053557, 0, 58.023702053557, 33.5, 0" fill="#ddd" fill-opacity="0.054666666666667" stroke="#000" stroke-opacity="0.02" transform="translate(100.5, 174.07110616067) rotate(0, 33.5, 29.011851026779)" /><polyline points="33.5, 0, 67, 58.023702053557, 0, 58.023702053557, 33.5, 0" fill="#222" fill-opacity="0.098" stroke="#000" stroke-opacity="0.02" transform="translate(134, 174.07110616067) rotate(180, 33.5, 29.011851026779)" /><polyline points="33.5, 0, 67, 58.023702053557, 0, 58.023702053557, 33.5, 0" fill="#ddd" fill-opacity="0.054666666666667" stroke="#000" stroke-opacity="0.02" transform="translate(-33.5, 232.09480821423) rotate(180, 33.5, 29.011851026779)" /><polyline points="33.5, 0, 67, 58.023702053557, 0, 58.023702053557, 33.5, 0" fill="#ddd" fill-opacity="0.054666666666667" stroke="#000" stroke-opacity="0.02" transform="translate(167.5, 232.09480821423) rotate(180, 33.5, 29.011851026779)" /><polyline points="33.5, 0, 67, 58.023702053557, 0, 58.023702053557, 33.5, 0" fill="#222" fill-opacity="0.063333333333333" stroke="#000" stroke-opacity="0.02" transform="translate(0, 232.09480821423) rotate(0, 33.5, 29.011851026779)" /><polyline points="33.5, 0, 67, 58.023702053557, 0, 58.023702053557, 33.5, 0" fill="#ddd" fill-opacity="0.037333333333333" stroke="#000" stroke-opacity="0.02" transform="translate(33.5, 232.09480821423) rotate(180, 33.5, 29.011851026779)" /><polyline points="33.5, 0, 67, 58.023702053557, 0, 58.023702053557, 33.5, 0" fill="#ddd" fill-opacity="0.14133333333333" stroke="#000" stroke-opacity="0.02" transform="translate(67, 232.09480821423) rotate(0, 33.5, 29.011851026779)" /><polyline points="33.5, 0, 67, 58.023702053557, 0, 58.023702053557, 33.5, 0" fill="#222" fill-opacity="0.13266666666667" stroke="#000" stroke-opacity="0.02" transform="translate(100.5, 232.09480821423) rotate(180, 33.5, 29.011851026779)" /><polyline points="33.5, 0, 67, 58.023702053557, 0, 58.023702053557, 33.5, 0" fill="#ddd" fill-opacity="0.072" stroke="#000" stroke-opacity="0.02" transform="translate(134, 232.09480821423) rotate(0, 33.5, 29.011851026779)" /><polyline points="33.5, 0, 67, 58.023702053557, 0, 58.023702053557, 33.5, 0" fill="#ddd" fill-opacity="0.14133333333333" stroke="#000" stroke-opacity="0.02" transform="translate(-33.5, 290.11851026779) rotate(0, 33.5, 29.011851026779)" /><polyline points="33.5, 0, 67, 58.023702053557, 0, 58.023702053557, 33.5, 0" fill="#ddd" fill-opacity="0.14133333333333" stroke="#000" stroke-opacity="0.02" transform="translate(167.5, 290.11851026779) rotate(0, 33.5, 29.011851026779)" /><polyline points="33.5, 0, 67, 58.023702053557, 0, 58.023702053557, 33.5, 0" fill="#ddd" fill-opacity="0.089333333333333" stroke="#000" stroke-opacity="0.02" transform="translate(0, 290.11851026779) rotate(180, 33.5, 29.011851026779)" /><polyline points="33.5, 0, 67, 58.023702053557, 0, 58.023702053557, 33.5, 0" fill="#222" fill-opacity="0.098" stroke="#000" stroke-opacity="0.02" transform="translate(33.5, 290.11851026779) rotate(0, 33.5, 29.011851026779)" /><polyline points="33.5, 0, 67, 58.023702053557, 0, 58.023702053557, 33.5, 0" fill="#ddd" fill-opacity="0.10666666666667" stroke="#000" stroke-opacity="0.02" transform="translate(67, 290.11851026779) rotate(180, 33.5, 29.011851026779)" /><polyline points="33.5, 0, 67, 58.023702053557, 0, 58.023702053557, 33.5, 0" fill="#ddd" fill-opacity="0.072" stroke="#000" stroke-opacity="0.02" transform="translate(100.5, 290.11851026779) rotate(0, 33.5, 29.011851026779)" /><polyline points="33.5, 0, 67, 58.023702053557, 0, 58.023702053557, 33.5, 0" fill="#ddd" fill-opacity="0.089333333333333" stroke="#000" stroke-opacity="0.02" transform="translate(134, 290.11851026779) rotate(180, 33.5, 29.011851026779)" /></svg>